<?xml version="1.0" encoding="iso-8859-1"?>
<!-- Generator: Adobe Illustrator 19.0.0, SVG Export Plug-In . SVG Version: 6.00 Build 0)  -->
<svg version="1.1" id="Layer_1" xmlns="http://www.w3.org/2000/svg" xmlns:xlink="http://www.w3.org/1999/xlink" x="0px" y="0px"
	 viewBox="0 0 512 512" style="enable-background:new 0 0 512 512;" xml:space="preserve">
<rect x="175.961" y="167.957" style="fill:#C8546F;" width="160.078" height="336.165"/>
<g>
	<rect x="215.975" y="151.947" style="fill:#FEC986;" width="40.014" height="40.014"/>
	<rect x="247.995" y="272.01" style="fill:#FEC986;" width="40.014" height="40.014"/>
	<rect x="223.98" y="392.064" style="fill:#FEC986;" width="40.014" height="40.014"/>
</g>
<rect x="175.961" y="472.102" style="fill:#9B4573;" width="160.078" height="32.017"/>
<g>
	<path style="fill:#1D1D1B;" d="M295.893,319.906h-55.777v-55.777h55.777V319.906z M255.874,304.148h24.262v-24.262h-24.262V304.148
		z"/>
	<path style="fill:#1D1D1B;" d="M271.883,439.965h-55.777v-55.777h55.777V439.965z M231.862,424.207h24.262v-24.262h-24.262V424.207
		z"/>
	<path style="fill:#1D1D1B;" d="M168.082,0v512h175.836V0H168.082z M328.16,15.758v144.321h-64.281v-16.008h-55.777v16.008H183.84
		V15.758H328.16z M248.12,159.829v24.262h-24.262v-24.262H248.12z M183.84,496.242V175.837h24.262v24.011h55.777v-24.011h64.281
		v320.406L183.84,496.242L183.84,496.242z"/>
</g>
<g>
	<rect x="200.091" y="223.981" style="fill:#FFFFFF;" width="15.758" height="16.007"/>
	<rect x="208.096" y="280.015" style="fill:#FFFFFF;" width="15.758" height="16.007"/>
	<rect x="280.141" y="352.049" style="fill:#FFFFFF;" width="15.758" height="16.008"/>
	<rect x="216.101" y="336.039" style="fill:#FFFFFF;" width="15.758" height="16.007"/>
	<rect x="296.14" y="416.078" style="fill:#FFFFFF;" width="15.758" height="16.008"/>
	<rect x="280.141" y="207.981" style="fill:#FFFFFF;" width="15.758" height="16.008"/>
</g>
<g>
	<rect x="296.14" y="31.891" style="fill:#1D1D1B;" width="15.758" height="112.059"/>
	<rect x="191.971" y="464.224" style="fill:#1D1D1B;" width="128.058" height="15.758"/>
</g>
<g>
</g>
<g>
</g>
<g>
</g>
<g>
</g>
<g>
</g>
<g>
</g>
<g>
</g>
<g>
</g>
<g>
</g>
<g>
</g>
<g>
</g>
<g>
</g>
<g>
</g>
<g>
</g>
<g>
</g>
</svg>
